<?xml version="1.0" standalone="no"?><!DOCTYPE svg PUBLIC "-//W3C//DTD SVG 1.1//EN" "http://www.w3.org/Graphics/SVG/1.1/DTD/svg11.dtd"><svg t="1682433973095" class="icon" viewBox="0 0 1280 1024" version="1.1" xmlns="http://www.w3.org/2000/svg" p-id="2657" xmlns:xlink="http://www.w3.org/1999/xlink" width="250" height="200"><path d="M1274.6 513.8l-39.2-58.8c-56.4-84.6-150.6-135-252.2-135H512l-162.4-162.4c40.2-40.2 45.2-102.2 15-147.8-6.8-10.4-21.6-11.8-30.4-3l-83.6 83.6L164.8 4.8c-7.2-7.2-19.2-6-24.8 2.4-24.6 37.2-20.6 88 12.2 120.8 6.6 6.6 14.6 10.6 22.6 15-4.4 3.4-9.4 6.2-12.8 10.8L12.8 352.4c-14.6 19.4-16.8 45.4-6 67l28.6 57.2c10.8 21.6 33 35.4 57.2 35.4h62c17 0 33.2-6.8 45.2-18.8L276 424l108 216h704v-155.6c32.4 24.4 36.6 35.2 80.2 100.6 9.8 14.8 29.6 18.6 44.4 8.8l53.2-35.4c14.6-10 18.6-29.8 8.8-44.6z m-682.2-27.2l-33 32.2 7.8 45.4c1.4 8.2-7.2 14.4-14.4 10.6L512 553.4l-40.8 21.4c-7.2 3.8-15.8-2.4-14.4-10.6l7.8-45.4-33-32.2c-6-5.8-2.6-15.8 5.6-17l45.6-6.6 20.4-41.4c3.6-7.4 14.2-7.4 18 0l20.4 41.4 45.6 6.6c8 1.2 11.2 11.2 5.2 17z m224 0l-33 32.2 7.8 45.4c1.4 8.2-7.2 14.4-14.4 10.6L736 553.4l-40.8 21.4c-7.2 3.8-15.8-2.4-14.4-10.6l7.8-45.4-33-32.2c-6-5.8-2.6-15.8 5.6-17l45.6-6.6 20.4-41.4c3.6-7.4 14.2-7.4 18 0l20.4 41.4 45.6 6.6c8 1.2 11.2 11.2 5.2 17z m224 0l-33 32.2 7.8 45.4c1.4 8.2-7.2 14.4-14.4 10.6L960 553.4l-40.8 21.4c-7.2 3.8-15.8-2.4-14.4-10.6l7.8-45.4-33-32.2c-6-5.8-2.6-15.8 5.6-17l45.6-6.6 20.4-41.4c3.6-7.4 14.2-7.4 18 0l20.4 41.4 45.6 6.6c8 1.2 11.2 11.2 5.2 17zM384 992c0 17.6 14.4 32 32 32h128c17.6 0 32-14.4 32-32v-160h320v160c0 17.6 14.4 32 32 32h128c17.6 0 32-14.4 32-32V704H384v288z" p-id="2658"></path></svg>